<svg width="273" height="83" viewBox="0 0 273 83" fill="none" xmlns="http://www.w3.org/2000/svg">
<g filter="url(#filter0_i_1770_970)">
<g filter="url(#filter1_i_1770_970)">
<path d="M28.808 60.624C26.6933 60.624 24.752 60.156 22.984 59.22C21.2507 58.284 19.864 56.984 18.824 55.32C17.8187 53.656 17.316 51.68 17.316 49.392V33.532C17.316 32.9773 17.1773 32.4747 16.9 32.024C16.6227 31.5733 16.2587 31.2093 15.808 30.932C15.3573 30.6547 14.8547 30.516 14.3 30.516C13.7453 30.516 13.2427 30.6547 12.792 30.932C12.3413 31.2093 11.9773 31.5733 11.7 32.024C11.4573 32.4747 11.336 32.9773 11.336 33.532V60H2.808V34.156C2.808 31.972 3.29333 30.048 4.264 28.384C5.26933 26.72 6.63867 25.4027 8.372 24.432C10.14 23.4613 12.116 22.976 14.3 22.976C16.5187 22.976 18.4947 23.4613 20.228 24.432C21.9613 25.4027 23.3307 26.72 24.336 28.384C25.3413 30.048 25.844 31.972 25.844 34.156V50.016C25.844 50.6053 25.9827 51.1253 26.26 51.576C26.5373 52.0267 26.884 52.3907 27.3 52.668C27.7507 52.9107 28.236 53.032 28.756 53.032C29.3107 53.032 29.8133 52.9107 30.264 52.668C30.7493 52.3907 31.1307 52.0267 31.408 51.576C31.6853 51.1253 31.824 50.6053 31.824 50.016V34.156C31.824 31.972 32.3267 30.048 33.332 28.384C34.3373 26.72 35.7067 25.4027 37.44 24.432C39.208 23.4613 41.1667 22.976 43.316 22.976C45.5347 22.976 47.4933 23.4613 49.192 24.432C50.9253 25.4027 52.2947 26.72 53.3 28.384C54.3053 30.048 54.808 31.972 54.808 34.156V60H46.28V33.48C46.28 32.9253 46.1413 32.44 45.864 32.024C45.6213 31.5733 45.2747 31.2093 44.824 30.932C44.3733 30.6547 43.8707 30.516 43.316 30.516C42.796 30.516 42.2933 30.6547 41.808 30.932C41.3573 31.2093 40.9933 31.5733 40.716 32.024C40.4387 32.44 40.3 32.9253 40.3 33.48V49.392C40.3 51.68 39.78 53.656 38.74 55.32C37.7 56.984 36.3133 58.284 34.58 59.22C32.8467 60.156 30.9227 60.624 28.808 60.624ZM69.3727 60C67.2847 60 65.4487 59.616 63.8647 58.848C62.2807 58.056 61.0447 56.976 60.1567 55.608C59.2927 54.216 58.8607 52.608 58.8607 50.784C58.8607 48.768 59.2807 47.04 60.1207 45.6C60.9607 44.16 62.0767 43.056 63.4687 42.288C64.8847 41.496 66.4447 41.1 68.1487 41.1C70.0927 41.1 71.7127 41.508 73.0087 42.324C74.3287 43.14 75.3247 44.256 75.9967 45.672C76.6687 47.064 77.0047 48.66 77.0047 50.46C77.0047 50.772 76.9807 51.144 76.9327 51.576C76.9087 51.984 76.8727 52.308 76.8247 52.548H64.7287C64.8727 53.172 65.1487 53.7 65.5567 54.132C65.9647 54.564 66.4807 54.888 67.1047 55.104C67.7287 55.296 68.4247 55.392 69.1927 55.392H74.8447V60H69.3727ZM64.5847 49.056H71.6047C71.5567 48.672 71.4847 48.3 71.3887 47.94C71.2927 47.58 71.1367 47.268 70.9207 47.004C70.7287 46.716 70.5007 46.476 70.2367 46.284C69.9727 46.068 69.6607 45.9 69.3007 45.78C68.9647 45.66 68.5807 45.6 68.1487 45.6C67.5967 45.6 67.1047 45.696 66.6727 45.888C66.2407 46.08 65.8807 46.344 65.5927 46.68C65.3047 46.992 65.0767 47.364 64.9087 47.796C64.7647 48.204 64.6567 48.624 64.5847 49.056ZM80.256 60V49.092C80.256 47.58 80.604 46.224 81.3 45.024C82.02 43.8 83.04 42.84 84.36 42.144C85.68 41.448 87.252 41.1 89.076 41.1C89.988 41.1 90.828 41.208 91.596 41.424C92.364 41.616 93.06 41.892 93.684 42.252C94.332 42.588 94.884 42.996 95.34 43.476H95.412C95.892 42.996 96.444 42.588 97.068 42.252C97.716 41.892 98.424 41.616 99.192 41.424C99.984 41.208 100.836 41.1 101.748 41.1C103.572 41.1 105.144 41.448 106.464 42.144C107.784 42.84 108.804 43.8 109.524 45.024C110.244 46.224 110.604 47.58 110.604 49.092V60H104.988V49.272C104.988 48.672 104.832 48.132 104.52 47.652C104.232 47.148 103.836 46.74 103.332 46.428C102.828 46.116 102.252 45.96 101.604 45.96C100.956 45.96 100.368 46.116 99.84 46.428C99.336 46.74 98.94 47.148 98.652 47.652C98.364 48.132 98.22 48.672 98.22 49.272V60H92.64V49.272C92.64 48.672 92.484 48.132 92.172 47.652C91.884 47.148 91.476 46.74 90.948 46.428C90.444 46.116 89.868 45.96 89.22 45.96C88.572 45.96 87.984 46.116 87.456 46.428C86.952 46.74 86.556 47.148 86.268 47.652C85.98 48.132 85.836 48.672 85.836 49.272V60H80.256ZM123.888 60.432C121.992 60.432 120.288 60.012 118.776 59.172C117.264 58.332 116.064 57.18 115.176 55.716C114.312 54.252 113.88 52.608 113.88 50.784C113.88 48.936 114.312 47.292 115.176 45.852C116.064 44.388 117.264 43.236 118.776 42.396C120.288 41.532 121.992 41.1 123.888 41.1C125.784 41.1 127.476 41.532 128.964 42.396C130.476 43.236 131.664 44.388 132.528 45.852C133.416 47.292 133.86 48.936 133.86 50.784C133.86 52.608 133.416 54.252 132.528 55.716C131.664 57.18 130.476 58.332 128.964 59.172C127.452 60.012 125.76 60.432 123.888 60.432ZM123.888 55.572C124.776 55.572 125.544 55.356 126.192 54.924C126.84 54.492 127.344 53.916 127.704 53.196C128.064 52.476 128.244 51.66 128.244 50.748C128.244 49.86 128.064 49.056 127.704 48.336C127.344 47.616 126.84 47.04 126.192 46.608C125.544 46.176 124.776 45.96 123.888 45.96C123 45.96 122.22 46.176 121.548 46.608C120.9 47.04 120.396 47.616 120.036 48.336C119.676 49.056 119.496 49.86 119.496 50.748C119.496 51.66 119.676 52.476 120.036 53.196C120.396 53.916 120.9 54.492 121.548 54.924C122.22 55.356 123 55.572 123.888 55.572ZM137.03 60V46.968C137.03 45.288 137.51 43.968 138.47 43.008C139.43 42.048 140.762 41.568 142.466 41.568H147.83V46.104H143.834C143.498 46.104 143.21 46.224 142.97 46.464C142.73 46.68 142.61 46.968 142.61 47.328V60H137.03ZM150.322 60V41.532H155.938V60H150.322ZM153.13 39.444C152.242 39.444 151.474 39.12 150.826 38.472C150.178 37.824 149.854 37.056 149.854 36.168C149.854 35.28 150.178 34.512 150.826 33.864C151.474 33.192 152.242 32.856 153.13 32.856C154.018 32.856 154.786 33.192 155.434 33.864C156.082 34.512 156.406 35.28 156.406 36.168C156.406 37.056 156.082 37.824 155.434 38.472C154.786 39.12 154.018 39.444 153.13 39.444ZM164.022 60C162.99 60 162.114 59.784 161.394 59.352C160.674 58.92 160.11 58.344 159.702 57.624C159.294 56.904 159.09 56.124 159.09 55.284C159.09 54.468 159.294 53.736 159.702 53.088C160.134 52.416 160.71 51.852 161.43 51.396L168.018 47.004C168.138 46.932 168.222 46.86 168.27 46.788C168.318 46.692 168.342 46.62 168.342 46.572C168.342 46.452 168.294 46.356 168.198 46.284C168.102 46.188 167.982 46.14 167.838 46.14H159.918L159.882 41.532H169.782C170.742 41.532 171.57 41.76 172.266 42.216C172.986 42.648 173.55 43.224 173.958 43.944C174.39 44.664 174.606 45.444 174.606 46.284C174.606 47.076 174.402 47.82 173.994 48.516C173.61 49.188 173.082 49.752 172.41 50.208L165.822 54.528C165.726 54.6 165.654 54.672 165.606 54.744C165.558 54.816 165.534 54.888 165.534 54.96C165.534 55.08 165.582 55.188 165.678 55.284C165.774 55.356 165.894 55.392 166.038 55.392H174.246V60H164.022ZM187.849 60C185.761 60 183.925 59.616 182.341 58.848C180.757 58.056 179.521 56.976 178.633 55.608C177.769 54.216 177.337 52.608 177.337 50.784C177.337 48.768 177.757 47.04 178.597 45.6C179.437 44.16 180.553 43.056 181.945 42.288C183.361 41.496 184.921 41.1 186.625 41.1C188.569 41.1 190.189 41.508 191.485 42.324C192.805 43.14 193.801 44.256 194.473 45.672C195.145 47.064 195.481 48.66 195.481 50.46C195.481 50.772 195.457 51.144 195.409 51.576C195.385 51.984 195.349 52.308 195.301 52.548H183.205C183.349 53.172 183.625 53.7 184.033 54.132C184.441 54.564 184.957 54.888 185.581 55.104C186.205 55.296 186.901 55.392 187.669 55.392H193.321V60H187.849ZM183.061 49.056H190.081C190.033 48.672 189.961 48.3 189.865 47.94C189.769 47.58 189.613 47.268 189.397 47.004C189.205 46.716 188.977 46.476 188.713 46.284C188.449 46.068 188.137 45.9 187.777 45.78C187.441 45.66 187.057 45.6 186.625 45.6C186.073 45.6 185.581 45.696 185.149 45.888C184.717 46.08 184.357 46.344 184.069 46.68C183.781 46.992 183.553 47.364 183.385 47.796C183.241 48.204 183.133 48.624 183.061 49.056Z" fill="#32312D"/>
</g>
</g>
<path d="M217.081 43.1034C217.1 43.1155 217.122 43.118 217.143 43.1252C216.844 43.9082 216.761 44.7926 216.917 45.6771C217.07 46.5422 217.431 47.3107 217.956 47.9318C216.586 48.5722 215.564 49.8312 215.198 51.3537C214.573 53.937 215.561 56.6025 217.837 58.4874C220.052 60.3192 223.055 61.0852 225.837 60.5705C225.32 62.2428 225.877 64.2026 227.293 65.626C228.579 66.9213 230.516 67.7864 232.747 68.0643C234.098 68.2335 236.07 68.2431 237.813 67.3417C239.412 66.5153 240.413 65.0484 240.407 63.5719C240.407 63.5671 240.41 63.5622 240.41 63.5574L240.41 46.6897L240.41 27.3643C240.426 27.3159 240.426 27.2676 240.41 27.2217L240.41 23.1014C240.491 21.8714 239.474 20.0203 238.303 19.2808C236.966 18.435 235.195 18 233.258 18C232.179 18 231.052 18.1353 229.916 18.4108C227.537 18.9884 225.191 20.7573 223.485 23.2657C222.468 24.7592 222.032 26.4 222.261 27.8838C222.277 27.9853 222.296 28.0844 222.317 28.1835C221.938 28.0916 221.553 28.0506 221.174 28.0506C219.239 28.0506 217.418 29.0776 216.807 29.457C214.366 30.9843 212.943 33.5652 213.002 36.3588C213.061 39.1451 214.587 41.6656 217.081 43.1034Z" fill="#32312D"/>
<path d="M245.381 25.9457L245.381 30.066C245.365 30.1119 245.365 30.1602 245.381 30.2086L245.381 49.534L245.381 66.4041C245.381 66.4041 245.383 66.4138 245.383 66.4186C245.378 67.8951 246.379 69.362 247.977 70.1885C249.718 71.0899 251.693 71.0802 253.044 70.911C255.275 70.6331 257.212 69.7656 258.498 68.4727C259.914 67.0469 260.468 65.0895 259.954 63.4172C262.736 63.932 265.736 63.1659 267.953 61.3341C270.233 59.4492 271.22 56.7837 270.593 54.2004C270.224 52.6779 269.202 51.4189 267.835 50.7785C268.357 50.1599 268.72 49.389 268.874 48.5238C269.03 47.6394 268.946 46.7549 268.648 45.9719C268.669 45.9647 268.691 45.9623 268.71 45.9502C271.204 44.5123 272.73 41.9918 272.789 39.2055C272.848 36.4119 271.425 33.831 268.984 32.3037C268.376 31.9219 266.554 30.8973 264.617 30.8973C264.238 30.8973 263.853 30.9384 263.473 31.0302C263.495 30.9311 263.514 30.8296 263.53 30.7305C263.759 29.2468 263.323 27.6059 262.306 26.1124C260.6 23.604 258.253 21.8351 255.875 21.2575C254.742 20.982 253.612 20.8467 252.533 20.8467C250.595 20.8467 248.825 21.2841 247.488 22.1275C246.32 22.867 245.3 24.7181 245.381 25.9481L245.381 25.9457Z" fill="#FFFEF8"/>
<path d="M243.753 28.4971C243.736 28.543 243.736 28.5913 243.753 28.6397L243.753 47.965L243.753 64.8352C243.753 64.8352 243.755 64.8449 243.755 64.8497C243.75 66.3262 244.751 67.7931 246.349 68.6196C248.09 69.521 250.065 69.5113 251.416 69.3421C253.646 69.0642 255.584 68.1991 256.87 66.9038C258.285 65.478 258.84 63.5206 258.326 61.8483C261.108 62.363 264.108 61.597 266.325 59.7652C268.604 57.8803 269.592 55.2148 268.965 52.6315C268.596 51.109 267.574 49.85 266.207 49.2096C266.729 48.5909 267.092 47.8201 267.246 46.9549C267.402 46.0704 267.318 45.186 267.02 44.403C267.041 44.3958 267.063 44.3933 267.081 44.3813C269.576 42.9434 271.101 40.4229 271.161 37.6366C271.22 34.843 269.796 32.2621 267.356 30.7348C266.748 30.353 264.926 29.3284 262.989 29.3284C262.609 29.3284 262.225 29.3694 261.845 29.4613C261.867 29.3622 261.886 29.2607 261.902 29.1616C262.13 27.6778 261.695 26.037 260.677 24.5435C258.971 22.0351 256.625 20.2662 254.247 19.6886C253.114 19.4131 251.984 19.2778 250.905 19.2778C248.967 19.2778 247.197 19.7152 245.859 20.5586C244.692 21.2981 243.672 23.1492 243.753 24.3792L243.753 28.4995L243.753 28.4971ZM246.19 20.9791C248.13 19.7515 251.085 19.4542 254.093 20.184C256.332 20.7277 258.552 22.4145 260.182 24.8094C261.129 26.2013 261.536 27.7213 261.326 29.0867C261.092 30.6188 260.021 31.9624 258.603 32.511C258.546 32.5328 258.506 32.5714 258.476 32.6149C258.113 32.3418 257.71 32.1123 257.274 31.9455C256.671 31.716 256.012 31.6024 255.352 31.6024C254.357 31.6024 253.356 31.8609 252.535 32.3612C252.403 32.4409 252.368 32.6028 252.46 32.7212C252.549 32.8397 252.729 32.8711 252.861 32.7889C254.066 32.0543 255.708 31.9093 257.048 32.4216C258.388 32.9339 259.41 34.0963 259.658 35.3867C259.902 36.6748 259.367 38.0788 258.293 38.9609C258.175 39.0575 258.167 39.2219 258.275 39.3258C258.382 39.4321 258.565 39.4393 258.681 39.3427C259.897 38.3446 260.503 36.7569 260.225 35.2997C260.059 34.4274 259.574 33.6057 258.891 32.9629C260.177 32.4458 261.199 31.3559 261.67 30.0485C261.676 30.0485 261.681 30.0485 261.684 30.0485C263.836 29.3308 266.315 30.7179 267.022 31.1626C269.307 32.5908 270.636 35.0097 270.579 37.6293C270.526 40.2296 269.113 42.5809 266.799 43.9269C266.793 43.9173 266.791 43.9076 266.785 43.8979C266.245 42.8999 265.306 42.1483 264.21 41.8342C263.842 41.7279 263.457 41.6771 263.075 41.6771C262.243 41.6771 261.423 41.9212 260.809 42.3779C260.685 42.4697 260.669 42.6317 260.772 42.7428C260.874 42.854 261.054 42.8685 261.178 42.7767C261.926 42.2208 263.048 42.0444 264.035 42.3272C264.966 42.5954 265.803 43.2672 266.269 44.1251C266.702 44.9226 266.845 45.8989 266.672 46.8776C266.476 47.9868 265.884 48.9583 265.047 49.5479C264.116 50.2028 262.846 50.3696 261.886 49.9636C261.74 49.9032 261.571 49.9587 261.501 50.0868C261.434 50.2149 261.495 50.3695 261.638 50.43C262.792 50.9181 264.305 50.7248 265.402 49.9539C265.548 49.8524 265.685 49.7388 265.814 49.618C267.092 50.1666 268.055 51.3265 268.397 52.7451C268.978 55.1471 268.055 57.629 265.93 59.3882C263.758 61.1838 260.788 61.8894 258.094 61.2732C258.88 60.3379 258.996 58.9895 258.326 57.9673C258.272 57.8851 258.175 57.8392 258.078 57.8392C258.03 57.8392 257.979 57.8513 257.933 57.8755C257.796 57.9479 257.75 58.1074 257.831 58.2307C258.441 59.1635 258.24 60.483 257.37 61.2345C256.501 61.9836 255.024 62.1117 254.01 61.5269C253.875 61.4496 253.698 61.4834 253.612 61.6042C253.525 61.7251 253.563 61.8846 253.698 61.9619C254.9 62.6579 256.569 62.5419 257.648 61.7033C257.664 61.7082 257.677 61.7106 257.693 61.7154C257.693 61.7444 257.693 61.771 257.704 61.8C258.277 63.3442 257.779 65.2146 256.437 66.5655C255.242 67.7689 253.429 68.5737 251.335 68.8371C250.076 68.9941 248.235 69.0087 246.637 68.1798C245.189 67.4306 244.264 66.0411 244.331 64.7216C244.331 64.7144 244.328 64.7071 244.328 64.6999L244.328 57.4453C245.73 57.1432 247.14 57.2206 248.308 57.67C249.624 58.1751 250.614 59.1538 250.958 60.2848C251.319 61.4737 250.883 62.8174 249.898 63.5496C249.775 63.6414 249.758 63.8033 249.861 63.9145C249.963 64.0257 250.143 64.0402 250.267 63.9483C251.44 63.0784 251.943 61.5511 251.518 60.1495C251.128 58.8687 250.014 57.7643 248.537 57.1964C247.762 56.8992 246.893 56.7469 245.991 56.7469C245.445 56.7469 244.888 56.8049 244.331 56.9161L244.331 48.0279C244.963 46.6794 246.761 45.6886 248.367 45.8095C249.976 45.9327 251.448 47.0902 251.795 48.5064C251.187 49.0187 250.714 49.6639 250.453 50.384C249.858 52.0152 250.393 53.905 251.784 55.0843C251.9 55.1834 252.083 55.1785 252.191 55.0746C252.301 54.9707 252.296 54.8064 252.18 54.7097C250.969 53.6803 250.482 51.9693 251.001 50.546C251.518 49.1226 253.036 47.9965 254.688 47.8104C256.343 47.6219 258.121 48.3735 259.017 49.6349C259.103 49.7557 259.281 49.792 259.415 49.7147C259.55 49.6373 259.59 49.4778 259.504 49.357C258.587 48.0617 256.916 47.2618 255.218 47.2618C255.019 47.2618 254.817 47.2739 254.618 47.2957C253.77 47.3923 252.968 47.6944 252.285 48.1439C251.782 46.6118 250.202 45.4301 248.418 45.2947C248.316 45.2875 248.211 45.2826 248.109 45.2826C246.702 45.2826 245.216 45.9883 244.334 47.0178L244.334 29.2969C245.663 30.4617 247.794 30.8967 249.527 30.2732C251.518 29.5555 252.818 27.5039 252.484 25.5996C252.463 25.4715 252.339 25.3821 252.199 25.3821C252.183 25.3821 252.169 25.3821 252.153 25.3845C251.997 25.4063 251.889 25.5392 251.914 25.6793C252.207 27.354 251.063 29.1616 249.312 29.7923C247.592 30.411 245.432 29.8455 244.334 28.5091L244.334 24.3889C244.334 24.3889 244.334 24.384 244.334 24.3792C244.334 24.3768 244.334 24.3744 244.334 24.3696C244.264 23.4223 245.109 21.6775 246.196 20.9888L246.19 20.9791Z" fill="#32312D"/>
<path d="M250.443 36.6608C248.987 36.6608 247.537 37.4099 246.832 38.5554C246.07 39.7951 246.207 41.4456 247.165 42.5693C247.262 42.6829 247.442 42.7046 247.569 42.6176C247.695 42.5306 247.72 42.3687 247.623 42.2551C246.799 41.2909 246.681 39.8724 247.335 38.8067C247.989 37.741 249.388 37.0764 250.739 37.19C252.087 37.3036 253.324 38.188 253.75 39.3456C253.801 39.4809 253.962 39.5558 254.113 39.5099C254.263 39.464 254.347 39.319 254.296 39.1837C253.803 37.8401 252.361 36.8082 250.792 36.6753C250.677 36.6656 250.558 36.6608 250.443 36.6608Z" fill="#32312D"/>
<path d="M218.506 44.3813C218.525 44.3933 218.546 44.3958 218.568 44.403C218.269 45.186 218.186 46.0704 218.342 46.9549C218.495 47.8201 218.856 48.5885 219.38 49.2096C218.011 49.85 216.988 51.109 216.622 52.6315C215.998 55.2148 216.986 57.8803 219.262 59.7652C221.476 61.597 224.479 62.363 227.261 61.8483C226.745 63.5206 227.302 65.4804 228.717 66.9038C230.003 68.1991 231.941 69.0642 234.171 69.3421C235.522 69.5113 237.494 69.521 239.238 68.6196C240.836 67.7931 241.837 66.3262 241.832 64.8497C241.832 64.8449 241.835 64.84 241.835 64.8352L241.835 47.9675L241.835 28.642C241.851 28.5937 241.851 28.5454 241.835 28.4995L241.835 24.3792C241.915 23.1492 240.898 21.2981 239.728 20.5586C238.39 19.7128 236.62 19.2778 234.683 19.2778C233.604 19.2778 232.476 19.4131 231.341 19.6886C228.962 20.2662 226.616 22.0351 224.91 24.5435C223.893 26.037 223.457 27.6778 223.685 29.1616C223.702 29.2631 223.72 29.3622 223.742 29.4613C223.363 29.3694 222.978 29.3284 222.598 29.3284C220.664 29.3284 218.842 30.3554 218.231 30.7348C215.791 32.2621 214.367 34.843 214.427 37.6366C214.486 40.4229 216.011 42.9434 218.506 44.3813ZM218.56 31.1601C219.267 30.7179 221.743 29.3284 223.898 30.0461C223.903 30.0461 223.909 30.0461 223.911 30.0461C224.382 31.3511 225.402 32.4433 226.691 32.9605C226.005 33.6033 225.521 34.4249 225.356 35.2973C225.079 36.7545 225.685 38.3422 226.898 39.3403C227.017 39.4369 227.197 39.4297 227.305 39.3233C227.412 39.217 227.404 39.0551 227.286 38.9584C226.212 38.0764 225.677 36.6724 225.921 35.3843C226.166 34.0963 227.192 32.9315 228.532 32.4192C229.872 31.9069 231.516 32.0519 232.718 32.7865C232.85 32.8662 233.03 32.8373 233.119 32.7188C233.208 32.6004 233.176 32.4409 233.044 32.3588C232.223 31.8585 231.225 31.6 230.227 31.6C229.567 31.6 228.908 31.7135 228.305 31.9431C227.87 32.1099 227.466 32.337 227.103 32.6125C227.073 32.569 227.033 32.5303 226.976 32.5086C225.558 31.9624 224.487 30.6164 224.253 29.0843C224.043 27.7165 224.45 26.1989 225.397 24.8069C227.027 22.4097 229.247 20.7253 231.486 20.1816C234.494 19.4518 237.449 19.749 239.389 20.9767C240.476 21.6654 241.323 23.4102 241.251 24.3575C241.251 24.3599 241.251 24.3623 241.251 24.3671C241.251 24.3695 241.251 24.3719 241.251 24.3768L241.251 28.4971C240.153 29.8334 237.992 30.3989 236.273 29.7803C234.518 29.1495 233.378 27.3419 233.671 25.6672C233.695 25.5271 233.587 25.3942 233.431 25.3724C233.415 25.3724 233.402 25.37 233.386 25.37C233.246 25.37 233.125 25.4618 233.1 25.5875C232.767 27.4918 234.066 29.5434 236.058 30.2612C237.79 30.8846 239.919 30.4521 241.251 29.2849L241.251 47.0057C240.368 45.9762 238.886 45.2706 237.476 45.2706C237.371 45.2706 237.268 45.2754 237.166 45.2826C235.382 45.418 233.803 46.5973 233.3 48.1318C232.619 47.6823 231.817 47.3802 230.967 47.2836C230.768 47.2618 230.566 47.2497 230.367 47.2497C228.666 47.2497 226.998 48.0496 226.08 49.3449C225.994 49.4657 226.034 49.6252 226.169 49.7026C226.304 49.7799 226.481 49.7436 226.567 49.6228C227.463 48.3614 229.245 47.6098 230.897 47.7983C232.551 47.9868 234.066 49.1105 234.583 50.5339C235.1 51.9572 234.615 53.6682 233.404 54.6976C233.289 54.7967 233.283 54.9586 233.394 55.0625C233.504 55.1665 233.684 55.1713 233.8 55.0722C235.188 53.8929 235.724 52.0032 235.132 50.372C234.871 49.6518 234.397 49.009 233.789 48.4943C234.136 47.0782 235.608 45.9182 237.217 45.7974C238.824 45.6741 240.621 46.6673 241.253 48.0158L241.253 56.904C240.696 56.7928 240.139 56.7348 239.593 56.7348C238.692 56.7348 237.823 56.8847 237.048 57.1843C235.571 57.7522 234.457 58.8566 234.066 60.1374C233.641 61.539 234.142 63.0663 235.318 63.9362C235.441 64.0281 235.622 64.0112 235.724 63.9024C235.826 63.7912 235.807 63.6293 235.686 63.5375C234.699 62.8053 234.263 61.4641 234.626 60.2727C234.97 59.1417 235.961 58.1654 237.276 57.658C238.444 57.2085 239.854 57.1311 241.256 57.4332L241.256 64.6878C241.256 64.6878 241.251 64.7023 241.253 64.7095C241.323 66.0266 240.395 67.4161 238.947 68.1677C237.346 68.9966 235.509 68.9845 234.249 68.825C232.153 68.564 230.342 67.7568 229.148 66.5534C227.805 65.2025 227.307 63.3321 227.88 61.7879C227.891 61.7589 227.891 61.7323 227.891 61.7033C227.907 61.6985 227.921 61.6961 227.937 61.6912C229.016 62.5274 230.684 62.6458 231.887 61.9498C232.021 61.8725 232.059 61.713 231.973 61.5922C231.887 61.4713 231.709 61.4375 231.575 61.5148C230.56 62.1021 229.086 61.974 228.214 61.2224C227.345 60.4733 227.14 59.1538 227.754 58.2186C227.835 58.0954 227.789 57.9359 227.652 57.8634C227.606 57.8392 227.555 57.8271 227.506 57.8271C227.407 57.8271 227.313 57.873 227.259 57.9552C226.589 58.9774 226.707 60.3259 227.49 61.2611C224.797 61.8749 221.826 61.1717 219.655 59.3762C217.529 57.6193 216.606 55.135 217.187 52.733C217.529 51.3144 218.492 50.1569 219.77 49.6059C219.902 49.7243 220.037 49.8403 220.182 49.9418C221.28 50.7151 222.792 50.906 223.946 50.4179C224.089 50.3575 224.151 50.2028 224.084 50.0747C224.016 49.9442 223.844 49.8887 223.702 49.9515C222.741 50.3575 221.468 50.1907 220.537 49.5358C219.7 48.9486 219.109 47.9747 218.912 46.8655C218.74 45.8892 218.882 44.9105 219.316 44.113C219.781 43.2551 220.618 42.5833 221.549 42.3151C222.537 42.0299 223.659 42.2063 224.407 42.7646C224.528 42.8564 224.711 42.8395 224.813 42.7307C224.915 42.6196 224.896 42.4577 224.775 42.3658C224.162 41.9091 223.341 41.665 222.51 41.665C222.128 41.665 221.743 41.7158 221.374 41.8221C220.279 42.1363 219.34 42.8902 218.799 43.8859C218.794 43.8955 218.791 43.9052 218.786 43.9149C216.474 42.5688 215.062 40.2175 215.005 37.6172C214.949 34.9952 216.281 32.5787 218.562 31.1505L218.56 31.1601Z" fill="#FFFEF8"/>
<path d="M231.468 39.5099C231.618 39.5558 231.782 39.4809 231.831 39.3456C232.256 38.1905 233.494 37.3036 234.842 37.19C236.19 37.0764 237.589 37.741 238.246 38.8067C238.899 39.8724 238.784 41.2885 237.958 42.2551C237.861 42.3687 237.885 42.5306 238.011 42.6176C238.138 42.7046 238.318 42.6829 238.415 42.5693C239.376 41.4456 239.513 39.7951 238.749 38.5554C238.044 37.4075 236.593 36.6608 235.138 36.6608C235.022 36.6608 234.904 36.6656 234.788 36.6753C233.219 36.8082 231.777 37.8376 231.285 39.1837C231.233 39.319 231.317 39.4664 231.468 39.5099Z" fill="#32312D"/>
<defs>
<filter id="filter0_i_1770_970" x="0" y="0" width="197" height="87" filterUnits="userSpaceOnUse" color-interpolation-filters="sRGB">
<feFlood flood-opacity="0" result="BackgroundImageFix"/>
<feBlend mode="normal" in="SourceGraphic" in2="BackgroundImageFix" result="shape"/>
<feColorMatrix in="SourceAlpha" type="matrix" values="0 0 0 0 0 0 0 0 0 0 0 0 0 0 0 0 0 0 127 0" result="hardAlpha"/>
<feOffset dy="4"/>
<feGaussianBlur stdDeviation="2"/>
<feComposite in2="hardAlpha" operator="arithmetic" k2="-1" k3="1"/>
<feColorMatrix type="matrix" values="0 0 0 0 0 0 0 0 0 0 0 0 0 0 0 0 0 0 0.25 0"/>
<feBlend mode="normal" in2="shape" result="effect1_innerShadow_1770_970"/>
</filter>
<filter id="filter1_i_1770_970" x="2.80811" y="22.976" width="192.673" height="41.648" filterUnits="userSpaceOnUse" color-interpolation-filters="sRGB">
<feFlood flood-opacity="0" result="BackgroundImageFix"/>
<feBlend mode="normal" in="SourceGraphic" in2="BackgroundImageFix" result="shape"/>
<feColorMatrix in="SourceAlpha" type="matrix" values="0 0 0 0 0 0 0 0 0 0 0 0 0 0 0 0 0 0 127 0" result="hardAlpha"/>
<feOffset dy="4"/>
<feGaussianBlur stdDeviation="2"/>
<feComposite in2="hardAlpha" operator="arithmetic" k2="-1" k3="1"/>
<feColorMatrix type="matrix" values="0 0 0 0 0 0 0 0 0 0 0 0 0 0 0 0 0 0 0.25 0"/>
<feBlend mode="normal" in2="shape" result="effect1_innerShadow_1770_970"/>
</filter>
</defs>
</svg>
