<svg width="198" height="171" viewBox="0 0 198 171" fill="none" xmlns="http://www.w3.org/2000/svg">
<path d="M178.24 0C177.947 8.33486 177.728 16.5235 177.582 24.5659C177.436 32.6083 177.363 40.0658 177.363 46.9384C177.363 70.0421 178.021 88.9783 179.337 103.747C180.799 118.37 182.992 129.629 185.917 137.525C188.841 145.275 192.716 150.393 197.542 152.879L182.188 170.426C174.292 169.549 167.639 166.99 162.228 162.749C156.964 158.362 152.724 151.855 149.507 143.228C146.29 134.454 143.95 123.122 142.488 109.231C141.172 95.3391 140.514 78.377 140.514 58.344C140.514 50.0092 140.587 40.9432 140.733 31.1461C141.025 21.2027 141.318 11.1132 141.61 0.877356C145.851 0.584899 150.896 0.365559 156.745 0.219336C162.594 0.0731119 169.759 0 178.24 0Z" fill="#FACC28"/>
<path d="M107.983 0C107.691 8.33486 107.471 16.5235 107.325 24.5659C107.179 32.6083 107.106 40.0658 107.106 46.9384C107.106 70.0421 107.764 88.9783 109.08 103.747C110.542 118.37 112.735 129.629 115.66 137.525C118.584 145.275 122.459 150.393 127.285 152.879L111.931 170.426C104.035 169.549 97.3817 166.99 91.9713 162.749C86.7072 158.362 82.4667 151.855 79.2497 143.228C76.0327 134.454 73.6931 123.122 72.2309 109.231C70.9149 95.3391 70.2568 78.377 70.2568 58.344C70.2568 50.0092 70.3299 40.9432 70.4762 31.1461C70.7686 21.2027 71.0611 11.1132 71.3535 0.877356C75.5941 0.584899 80.6389 0.365559 86.4879 0.219336C92.3369 0.0731119 99.502 0 107.983 0Z" fill="#FA0085"/>
<path d="M37.7262 0C37.4338 8.33486 37.2144 16.5235 37.0682 24.5659C36.922 32.6083 36.8489 40.0658 36.8489 46.9384C36.8489 70.0421 37.5069 88.9783 38.8229 103.747C40.2852 118.37 42.4786 129.629 45.4031 137.525C48.3276 145.275 52.2026 150.393 57.028 152.879L41.6743 170.426C33.7781 169.549 27.1249 166.99 21.7145 162.749C16.4504 158.362 12.2098 151.855 8.99288 143.228C5.77592 134.454 3.4363 123.122 1.97405 109.231C0.658016 95.3391 0 78.377 0 58.344C0 50.0092 0.0731136 40.9432 0.21934 31.1461C0.511791 21.2027 0.804241 11.1132 1.09669 0.877356C5.33724 0.584899 10.382 0.365559 16.231 0.219336C22.0801 0.0731119 29.2451 0 37.7262 0Z" fill="#7650D7"/>
</svg>
