<svg width="108" height="74" viewBox="0 0 108 74" fill="none" xmlns="http://www.w3.org/2000/svg">
<path d="M73.7943 0C73.7215 2.07453 73.6669 4.11267 73.6305 6.11441C73.5941 8.11615 73.5759 9.9723 73.5759 11.6829C73.5759 17.4333 73.7397 22.1465 74.0672 25.8224C74.4312 29.462 74.9771 32.2644 75.705 34.2298C76.4329 36.1587 77.3974 37.4325 78.5985 38.0513L74.7769 42.4187C72.8116 42.2003 71.1556 41.5634 69.809 40.5079C68.4988 39.4161 67.4433 37.7965 66.6426 35.6492C65.8419 33.4655 65.2596 30.6448 64.8956 27.1873C64.5681 23.7297 64.4043 19.5079 64.4043 14.5217C64.4043 12.4472 64.4225 10.1907 64.4589 7.75219C64.5317 5.27732 64.6045 2.76604 64.6773 0.218372C65.7327 0.14558 66.9884 0.090987 68.4442 0.0545922C69.9 0.0181974 71.6834 0 73.7943 0Z" fill="#FACC28"/>
<path d="M56.3079 0C56.2352 2.07453 56.1806 4.11267 56.1442 6.11441C56.1078 8.11615 56.0896 9.9723 56.0896 11.6829C56.0896 17.4333 56.2534 22.1465 56.5809 25.8224C56.9449 29.462 57.4908 32.2644 58.2187 34.2298C58.9466 36.1587 59.9111 37.4325 61.1121 38.0513L57.2906 42.4187C55.3253 42.2003 53.6693 41.5634 52.3227 40.5079C51.0124 39.4161 49.957 37.7965 49.1563 35.6492C48.3556 33.4655 47.7733 30.6448 47.4093 27.1873C47.0817 23.7297 46.918 19.5079 46.918 14.5217C46.918 12.4472 46.9362 10.1907 46.9726 7.75219C47.0454 5.27732 47.1181 2.76604 47.1909 0.218372C48.2464 0.14558 49.502 0.090987 50.9578 0.0545922C52.4137 0.0181974 54.197 0 56.3079 0Z" fill="#FA0085"/>
<path d="M38.8206 0C38.7479 2.07453 38.6933 4.11267 38.6569 6.11441C38.6205 8.11615 38.6023 9.9723 38.6023 11.6829C38.6023 17.4333 38.7661 22.1465 39.0936 25.8224C39.4576 29.462 40.0035 32.2644 40.7314 34.2298C41.4593 36.1587 42.4238 37.4325 43.6248 38.0513L39.8033 42.4187C37.838 42.2003 36.182 41.5634 34.8354 40.5079C33.5251 39.4161 32.4697 37.7965 31.669 35.6492C30.8683 33.4655 30.286 30.6448 29.922 27.1873C29.5944 23.7297 29.4307 19.5079 29.4307 14.5217C29.4307 12.4472 29.4489 10.1907 29.4853 7.75219C29.558 5.27732 29.6308 2.76604 29.7036 0.218372C30.7591 0.14558 32.0147 0.090987 33.4705 0.0545922C34.9263 0.0181974 36.7097 0 38.8206 0Z" fill="#7650D7"/>
<path d="M71.9736 54.4285H76.887V66.3843H83.2471V69.9874H71.9736V54.4285Z" fill="white"/>
<path d="M61.8561 66.7115C62.311 66.7115 63.1572 66.666 64.3946 66.575C64.5584 66.575 64.8587 66.5568 65.2954 66.5204L65.7049 69.332C64.3037 69.9871 62.4839 70.3147 60.2456 70.3147C58.1529 70.3147 56.5424 69.7869 55.4141 68.7315C54.3041 67.676 53.749 66.0837 53.749 63.9546C53.749 62.8627 53.8855 61.8073 54.1585 60.7882C54.4496 59.7691 54.7772 59.0594 55.1411 58.6591C55.5233 58.2587 56.233 57.913 57.2703 57.6218C58.3075 57.3306 59.3357 57.1851 60.3548 57.1851C61.9925 57.1851 63.2209 57.4762 64.0398 58.0585C64.8587 58.6409 65.3955 59.4507 65.6503 60.4879C65.905 61.507 66.0324 62.8809 66.0324 64.6097C64.795 64.6825 63.5848 64.7189 62.402 64.7189H58.5259C58.5259 65.3012 58.6442 65.7379 58.8808 66.0291C59.1355 66.3203 59.4904 66.5113 59.9453 66.6023C60.4003 66.6751 61.0372 66.7115 61.8561 66.7115ZM58.7989 60.4333C58.6897 60.4879 58.6078 60.7245 58.5532 61.143C58.4986 61.5616 58.4622 62.0347 58.444 62.5625H59.8634C60.7187 62.5625 61.3374 62.5534 61.7196 62.5352C61.7196 61.6617 61.5922 61.043 61.3374 60.679C61.1009 60.3151 60.6823 60.1331 60.0818 60.1331C59.5905 60.1331 59.1628 60.2332 58.7989 60.4333Z" fill="white"/>
<path d="M47.2588 53.609L51.9265 53.418V69.9869H47.2588V53.609Z" fill="white"/>
<path d="M41.0603 57.1582C42.3705 57.1582 43.4077 57.5949 44.172 58.4684C44.9545 59.3237 45.3458 60.825 45.3458 62.9723C45.3458 64.5737 45.1911 65.884 44.8818 66.903C44.5724 67.9039 44.2175 68.5681 43.8172 68.8957C43.4168 69.2232 42.7162 69.4871 41.7154 69.6873C40.7327 69.8874 39.7136 69.9875 38.6582 69.9875C38.3488 69.9875 37.8302 69.9693 37.1023 69.9329V73.809L32.4346 74.0001V57.4312H36.2561L36.7201 59.3692C37.1933 58.6959 37.7938 58.1591 38.5217 57.7587C39.2678 57.3584 40.114 57.1582 41.0603 57.1582ZM39.9684 66.6574C40.1686 66.5118 40.3141 66.1023 40.4051 65.429C40.4961 64.7375 40.5416 64.0824 40.5416 63.4637C40.5416 62.4446 40.4142 61.6894 40.1595 61.1981C39.9047 60.7067 39.3952 60.4611 38.6309 60.4611C38.0849 60.4611 37.5754 60.5157 37.1023 60.6249V66.6847L37.8666 66.7666C38.1031 66.7847 38.4398 66.7938 38.8765 66.7938C39.4953 66.7938 39.8592 66.7484 39.9684 66.6574Z" fill="white"/>
<path d="M27.8006 55.8747C27.1819 55.8747 26.6451 55.6654 26.1901 55.2469C25.7534 54.8283 25.535 54.3279 25.535 53.7456C25.535 53.1633 25.7534 52.6628 26.1901 52.2443C26.6451 51.8257 27.1819 51.6165 27.8006 51.6165C28.4193 51.6165 28.9471 51.8257 29.3838 52.2443C29.8206 52.6628 30.0389 53.1633 30.0389 53.7456C30.0389 54.3279 29.8206 54.8283 29.3838 55.2469C28.9471 55.6654 28.4193 55.8747 27.8006 55.8747ZM25.4531 57.4306H30.1208V69.987H25.4531V57.4306Z" fill="white"/>
<path d="M22.8088 57.1582C23.0454 57.1582 23.291 57.1855 23.5458 57.2401C23.8188 57.2947 24.0189 57.3584 24.1463 57.4312C24.1463 57.8315 24.1008 58.4957 24.0098 59.4238C23.9188 60.3337 23.837 60.9797 23.7642 61.3619C23.5822 61.3437 23.2455 61.3346 22.7542 61.3346C21.6077 61.3346 20.5887 61.3983 19.697 61.5256V69.9875H15.0293V57.4312H18.9327L19.4786 59.4511H19.5059C20.0336 58.7596 20.5978 58.2046 21.1983 57.786C21.7988 57.3675 22.3356 57.1582 22.8088 57.1582Z" fill="white"/>
<path d="M9.30809 69.9874H4.39473V57.8405H0V54.4285H13.7028V57.8405H9.30809V69.9874Z" fill="white"/>
<path fill-rule="evenodd" clip-rule="evenodd" d="M101.69 64.6365C101.949 64.6365 102.186 64.7827 102.302 65.0142L104.237 68.8859C104.406 69.2234 104.269 69.6338 103.932 69.8025C103.594 69.9713 103.184 69.8345 103.015 69.497L101.69 66.8475L100.366 69.497C100.197 69.8345 99.7866 69.9713 99.4491 69.8025C99.1116 69.6338 98.9748 69.2234 99.1436 68.8859L101.079 65.0142C101.195 64.7827 101.432 64.6365 101.69 64.6365Z" fill="white"/>
<path fill-rule="evenodd" clip-rule="evenodd" d="M100.118 68.3031C100.118 68.0138 100.4 67.7793 100.747 67.7793H103.68C104.027 67.7793 104.309 68.0138 104.309 68.3031C104.309 68.5924 104.027 68.827 103.68 68.827H100.747C100.4 68.827 100.118 68.5924 100.118 68.3031Z" fill="white"/>
<path fill-rule="evenodd" clip-rule="evenodd" d="M102.213 63.8953C100.068 63.8953 98.3294 65.634 98.3294 67.7789C98.3294 69.9237 100.068 71.6625 102.213 71.6625C104.358 71.6625 106.097 69.9237 106.097 67.7789C106.097 65.634 104.358 63.8953 102.213 63.8953ZM96.9746 67.7789C96.9746 64.8858 99.3199 62.5405 102.213 62.5405C105.106 62.5405 107.451 64.8858 107.451 67.7789C107.451 70.6719 105.106 73.0172 102.213 73.0172C99.3199 73.0172 96.9746 70.6719 96.9746 67.7789Z" fill="white"/>
<path fill-rule="evenodd" clip-rule="evenodd" d="M90.9922 54.4903C89.85 54.4903 88.9244 55.416 88.9244 56.5581V60.1422C88.9244 61.2843 89.85 62.21 90.9922 62.21H94.5763C95.7184 62.21 96.6441 61.2843 96.6441 60.1422V56.5581C96.6441 55.416 95.7184 54.4903 94.5763 54.4903H90.9922ZM87.5459 56.5581C87.5459 54.6546 89.0887 53.1118 90.9922 53.1118H94.5763C96.4798 53.1118 98.0226 54.6546 98.0226 56.5581V60.1422C98.0226 62.0457 96.4798 63.5885 94.5763 63.5885H90.9922C89.0887 63.5885 87.5459 62.0457 87.5459 60.1422V56.5581Z" fill="white"/>
<path fill-rule="evenodd" clip-rule="evenodd" d="M90.6895 57.8266C90.6895 57.5373 91.007 57.3027 91.3986 57.3027H95.2186C95.6103 57.3027 95.9278 57.5373 95.9278 57.8266C95.9278 58.1159 95.6103 58.3504 95.2186 58.3504H91.3986C91.007 58.3504 90.6895 58.1159 90.6895 57.8266Z" fill="white"/>
<path fill-rule="evenodd" clip-rule="evenodd" d="M93.307 56.2549C93.5963 56.2549 93.8309 56.5776 93.8309 56.9758V57.6293C93.8309 58.0275 93.5963 58.3502 93.307 58.3502C93.0177 58.3502 92.7832 58.0275 92.7832 57.6293V56.9758C92.7832 56.5776 93.0177 56.2549 93.307 56.2549Z" fill="white"/>
<path fill-rule="evenodd" clip-rule="evenodd" d="M94.1874 57.3027C94.57 57.3027 94.8801 57.6054 94.8801 57.9786C94.8801 59.8967 93.3373 61.4934 91.3822 61.4934C90.9996 61.4934 90.6895 61.1908 90.6895 60.8175C90.6895 60.4442 90.9996 60.1416 91.3822 60.1416C92.525 60.1416 93.4946 59.1969 93.4946 57.9786C93.4946 57.6054 93.8048 57.3027 94.1874 57.3027Z" fill="white"/>
<path fill-rule="evenodd" clip-rule="evenodd" d="M93.0637 59.5244C93.3747 59.3152 93.8171 59.3703 94.0519 59.6474C94.3837 60.039 94.8033 60.2356 95.2207 60.2356C95.6103 60.2356 95.9262 60.517 95.9262 60.8642C95.9262 61.2114 95.6103 61.4928 95.2207 61.4928C94.2683 61.4928 93.4631 61.0391 92.9257 60.4048C92.6909 60.1277 92.7527 59.7336 93.0637 59.5244Z" fill="white"/>
<path fill-rule="evenodd" clip-rule="evenodd" d="M99.0693 56.863C99.0693 56.5269 99.3877 56.2544 99.7804 56.2544H101.17C103.482 56.2544 105.355 57.8587 105.355 59.8364C105.355 60.1726 105.037 60.4451 104.644 60.4451C104.252 60.4451 103.933 60.1726 103.933 59.8364C103.933 58.5308 102.696 57.4717 101.17 57.4717H99.7804C99.3877 57.4717 99.0693 57.1992 99.0693 56.863Z" fill="white"/>
<path fill-rule="evenodd" clip-rule="evenodd" d="M99.2464 56.4315C99.4826 56.1954 99.8654 56.1954 100.102 56.4315L100.988 57.3175C101.224 57.5537 101.224 57.9365 100.988 58.1726C100.751 58.4088 100.369 58.4088 100.132 58.1726L99.2464 57.2866C99.0103 57.0505 99.0103 56.6676 99.2464 56.4315Z" fill="white"/>
<path fill-rule="evenodd" clip-rule="evenodd" d="M100.988 55.3832C101.224 55.6193 101.224 56.0021 100.988 56.2383L100.102 57.1243C99.8654 57.3604 99.4826 57.3604 99.2464 57.1243C99.0103 56.8882 99.0103 56.5053 99.2464 56.2692L100.132 55.3832C100.369 55.147 100.751 55.147 100.988 55.3832Z" fill="white"/>
<path fill-rule="evenodd" clip-rule="evenodd" d="M90.3507 65.6826C90.7435 65.6826 91.0618 65.9551 91.0618 66.2913C91.0618 67.5969 92.2985 68.656 93.8246 68.656H95.2146C95.6073 68.656 95.9257 68.9285 95.9257 69.2646C95.9257 69.6008 95.6073 69.8733 95.2146 69.8733H93.8246C91.5128 69.8733 89.6396 68.269 89.6396 66.2913C89.6396 65.9551 89.958 65.6826 90.3507 65.6826Z" fill="white"/>
<path fill-rule="evenodd" clip-rule="evenodd" d="M94.0072 67.9547C94.2433 67.7186 94.6262 67.7186 94.8623 67.9547L95.7483 68.8407C95.9844 69.0768 95.9844 69.4597 95.7483 69.6958C95.5122 69.932 95.1293 69.932 94.8932 69.6958L94.0072 68.8098C93.771 68.5737 93.771 68.1908 94.0072 67.9547Z" fill="white"/>
<path fill-rule="evenodd" clip-rule="evenodd" d="M95.7483 69.0028C95.9844 69.2389 95.9844 69.6218 95.7483 69.8579L94.8623 70.7439C94.6262 70.9801 94.2433 70.9801 94.0072 70.7439C93.771 70.5078 93.771 70.1249 94.0072 69.8888L94.8932 69.0028C95.1293 68.7667 95.5122 68.7667 95.7483 69.0028Z" fill="white"/>
</svg>
